<svg id="Capa_1" enable-background="new 0 0 511.604 511.604" height="512" viewBox="0 0 511.604 511.604" width="512" xmlns="http://www.w3.org/2000/svg"><g><g><path d="m496.902 245.33v141.36h-482.2v-262.32c0-57.77 44.7-105.75 103.44-115.17 6.89-1.12 13.97-1.7 21.2-1.7 34.42 0 65.58 13.08 88.13 34.23 22.56 21.15 36.51 50.37 36.51 82.64 0 11.75 5.08 22.38 13.29 30.08s19.55 12.46 32.07 12.46h103.93c46.19 0 83.63 35.11 83.63 78.42z" fill="#465a61"/><path d="m454.512 245.33v141.36h-439.81v-262.32c0-57.77 44.7-105.75 103.44-115.17 25.93 4.15 49.12 15.82 66.94 32.53 22.55 21.15 36.5 50.37 36.5 82.64 0 11.75 5.08 22.38 13.29 30.08s19.55 12.46 32.08 12.46h103.92c46.19 0 83.64 35.11 83.64 78.42z" fill="#596c76"/><path d="m29.854 504.5h-.93c-7.855 0-14.222-6.367-14.222-14.222v-103.587h29.374v103.587c0 7.855-6.367 14.222-14.222 14.222z" fill="#465a61"/><path d="m482.685 504.5h-.93c-7.855 0-14.222-6.367-14.222-14.222v-103.587h29.374v103.587c0 7.855-6.367 14.222-14.222 14.222z" fill="#465a61"/><path d="m44.072 386.69h52.94v100.04h-52.94z" fill="#fedba6"/><path d="m44.072 386.69h26.47v100.04h-26.47z" fill="#ffefd2"/><path d="m97.012 386.69h52.93v100.04h-52.93z" fill="#fedba6"/><path d="m97.012 386.69h26.47v100.04h-26.47z" fill="#ffefd2"/><path d="m149.942 386.69h52.93v100.04h-52.93z" fill="#fedba6"/><path d="m149.942 386.69h26.47v100.04h-26.47z" fill="#ffefd2"/><path d="m202.872 386.69h52.93v100.04h-52.93z" fill="#fedba6"/><path d="m202.872 386.69h26.47v100.04h-26.47z" fill="#ffefd2"/><path d="m255.802 386.69h52.93v100.04h-52.93z" fill="#fedba6"/><path d="m255.802 386.69h26.47v100.04h-26.47z" fill="#ffefd2"/><path d="m308.732 386.69h52.94v100.04h-52.94z" fill="#fedba6"/><path d="m308.732 386.69h26.47v100.04h-26.47z" fill="#ffefd2"/><path d="m361.672 386.69h52.93v100.04h-52.93z" fill="#fedba6"/><path d="m361.672 386.69h26.47v100.04h-26.47z" fill="#ffefd2"/><path d="m414.602 386.69h52.93v100.04h-52.93z" fill="#fedba6"/><path d="m414.602 386.69h26.46v100.04h-26.46z" fill="#ffefd2"/><g fill="#596c76"><path d="m83.677 386.691h26.662v50.017h-26.662z"/><path d="m136.609 386.691h26.662v50.017h-26.662z"/><path d="m242.474 386.691h26.662v50.017h-26.662z"/><path d="m295.406 386.691h26.662v50.017h-26.662z"/><path d="m348.338 386.691h26.662v50.017h-26.662z"/></g><path d="m460.372 343.05c0 4.25-1.72 8.09-4.5 10.87-2.78 2.79-6.63 4.51-10.87 4.51h-379.46c-8.49 0-15.38-6.89-15.38-15.38 0-4.25 1.72-8.09 4.51-10.87 2.78-2.78 6.63-4.5 10.87-4.5h379.46c8.49 0 15.37 6.88 15.37 15.37z" fill="#a44f3e"/><path d="m424.902 343.05c0 4.25-1.72 8.09-4.5 10.87-2.78 2.79-6.62 4.51-10.87 4.51h-343.99c-8.49 0-15.38-6.89-15.38-15.38 0-4.25 1.72-8.09 4.51-10.87 2.78-2.78 6.63-4.5 10.87-4.5h343.99c8.49 0 15.37 6.88 15.37 15.37z" fill="#bb5d4c"/></g><g><path d="m504.405 279.998c0-9.386-15-9.813-15 0v99.193h-467.208v-254.82c0-60.308 52.55-109.371 117.141-109.371s117.141 49.063 117.141 109.371c0 27.591 23.715 50.037 52.866 50.037h103.926c41.98 0 76.134 31.815 76.134 70.921 0 9.386 15 9.813 15 0 0-47.377-40.883-85.921-91.134-85.921h-103.926c-20.879 0-37.866-15.718-37.866-35.037 0-68.578-59.278-124.371-132.141-124.371s-132.141 55.793-132.141 124.371l.005 299.296c0 9.386 15 9.813 15 0v-29.476h14.37l.004 96.087c0 8.889-14.374 8.889-14.374 0v-31.278c0-9.386-15-9.813-15 0v31.278c0 25.913 39.313 29.373 44.007 3.952l409.19-.005c4.689 25.425 44.008 21.968 44.008-3.947zm-414.893 199.232h-37.936v-85.039h24.606v42.519c0 7.141 7.94 8.077 13.33 7.5zm13.33-50.02h-11.66v-35.019h11.66zm52.93 0h-11.66v-35.019h11.66zm105.86 0h-11.66v-35.019h11.66zm52.94 0h-11.67v-35.019h11.67zm52.93 0h-11.66v-35.019h11.66zm54.6-35.019h37.931v85.034h-37.931zm-317.59 50.019c5.406.487 13.33-.168 13.33-7.5v-42.519h11.27v42.519c0 7.141 7.94 8.077 13.33 7.5v35.021h-37.93zm52.93 0c5.406.487 13.33-.168 13.33-7.5v-42.519h24.6v85.039h-37.93zm52.93-50.019h24.6v42.519c0 7.141 7.94 8.077 13.33 7.5v35.021h-37.93zm52.93 50.019c5.406.487 13.33-.168 13.33-7.5v-42.519h11.27v42.519c0 7.141 7.94 8.077 13.33 7.5v35.021h-37.93zm52.93 0c5.407.487 13.34-.164 13.34-7.5v-42.519h11.27v42.519c0 7.141 7.94 8.077 13.33 7.5v35.021h-37.94zm52.94 0c5.406.487 13.33-.168 13.33-7.5v-42.519h24.599v85.039h-37.929zm120.235 46.068c0 8.888-14.374 8.889-14.374 0v-96.087h14.374z"/><path d="m444.998 350.926h-324.196c-9.386 0-9.813 15 0 15h324.195c29.495 0 29.495-45.75 0-45.75h-379.458c-29.495 0-29.495 45.75 0 45.75h18.139c9.386 0 9.813-15 0-15h-18.139c-9.851 0-10.302-15.75 0-15.75h379.459c9.851 0 10.302 15.75 0 15.75z"/></g></g></svg>